<?xml version="1.0" encoding="utf-8"?>
<!-- Generator: Adobe Illustrator 26.5.0, SVG Export Plug-In . SVG Version: 6.00 Build 0)  -->
<svg version="1.1" id="Layer_1" xmlns="http://www.w3.org/2000/svg" xmlns:xlink="http://www.w3.org/1999/xlink" x="0px" y="0px"
	 viewBox="0 0 720 720" style="enable-background:new 0 0 720 720;" xml:space="preserve">
<style type="text/css">
	.st0{fill:#00A651;}
	.st1{fill:#FFFFFF;}
	.st2{fill:none;stroke:#8FF0BA;stroke-width:25;stroke-miterlimit:10;}
	.st3{fill:#8FF0BA;}
</style>
<g>
	<circle class="st2" cx="360" cy="360" r="347.66"/>
	<g>
		<path class="st3" d="M302.51,284.91c23.44-24.51,53.82-42.32,87.99-50.27c-3.79-62.05-55.3-111.21-118.31-111.21
			c-65.47,0-118.54,53.07-118.54,118.54c0,23.62,6.91,45.63,18.82,64.11c21.14-19.78,49.54-31.89,80.78-31.89
			C270.83,274.19,287.51,278.03,302.51,284.91z"/>
		<path class="st3" d="M430.93,230.02c-13.91,0-27.44,1.6-40.43,4.62c0.15,2.42,0.23,4.87,0.23,7.33
			c0,34.28-14.55,65.15-37.81,86.79c11.78,18.39,18.61,40.25,18.61,63.71c0,54.88-37.38,101.02-88.06,114.38
			c31.91,47.37,86.05,78.53,147.46,78.53c98.13,0,177.68-79.55,177.68-177.68S529.06,230.02,430.93,230.02z"/>
		<path class="st3" d="M259.78,359.87c-36.64-3.82-68.32-24.32-87.3-53.78c-23.08,21.58-37.5,52.3-37.5,86.39
			c0,65.32,52.96,118.28,118.28,118.28c10.45,0,20.57-1.36,30.22-3.9c-19.08-28.32-30.22-62.43-30.22-99.15
			C253.25,391.13,255.53,375.09,259.78,359.87z"/>
		<path class="st3" d="M302.51,284.91c-19.9,20.8-34.78,46.43-42.74,74.95c4.08,0.43,8.23,0.65,12.42,0.65
			c31.19,0,59.56-12.05,80.73-31.75C340.73,309.73,323.23,294.42,302.51,284.91z"/>
	</g>
</g>
</svg>
