<?xml version="1.0" encoding="utf-8"?>
<!-- Generator: Adobe Illustrator 26.5.0, SVG Export Plug-In . SVG Version: 6.00 Build 0)  -->
<svg version="1.1" id="Layer_1" xmlns="http://www.w3.org/2000/svg" xmlns:xlink="http://www.w3.org/1999/xlink" x="0px" y="0px"
	 viewBox="0 0 720 720" style="enable-background:new 0 0 720 720;" xml:space="preserve">
<style type="text/css">
	.st0{fill:#00A651;}
	.st1{fill:#FFFFFF;}
	.st2{fill:none;stroke:#8FF0BA;stroke-width:25;stroke-miterlimit:10;}
	.st3{fill:#8FF0BA;}
</style>
<g>
	<path class="st3" d="M371.53,392.47c0-23.46-6.83-45.32-18.61-63.71c-21.16,19.7-49.54,31.75-80.73,31.75
		c-4.2,0-8.34-0.22-12.42-0.65c-4.24,15.22-6.52,31.26-6.52,47.83c0,36.72,11.14,70.83,30.22,99.15
		C334.16,493.5,371.53,447.35,371.53,392.47z"/>
	<path class="st3" d="M302.51,284.91c20.72,9.5,38.22,24.81,50.41,43.85c23.26-21.64,37.81-52.51,37.81-86.79
		c0-2.46-0.08-4.9-0.23-7.33C356.33,242.6,325.95,260.41,302.51,284.91z"/>
	<path class="st3" d="M259.78,359.87c7.95-28.52,22.84-54.15,42.74-74.95c-15-6.88-31.68-10.72-49.26-10.72
		c-31.23,0-59.63,12.11-80.78,31.89C191.46,335.54,223.13,356.05,259.78,359.87z"/>
	<path class="st3" d="M360,12.34C168,12.34,12.34,168,12.34,360S168,707.66,360,707.66S707.66,552,707.66,360S552,12.34,360,12.34z
		 M430.93,585.38c-61.41,0-115.55-31.16-147.46-78.53c-9.65,2.54-19.77,3.9-30.22,3.9c-65.32,0-118.28-52.96-118.28-118.28
		c0-34.09,14.43-64.81,37.5-86.39c-11.91-18.48-18.82-40.49-18.82-64.11c0-65.47,53.07-118.54,118.54-118.54
		c63,0,114.52,49.16,118.31,111.21c12.99-3.02,26.52-4.62,40.43-4.62c98.13,0,177.68,79.55,177.68,177.68
		S529.06,585.38,430.93,585.38z"/>
</g>
</svg>
